<svg width="44" height="59" viewBox="0 0 44 59" fill="none" xmlns="http://www.w3.org/2000/svg">
<mask id="path-1-outside-1_1_464" maskUnits="userSpaceOnUse" x="0" y="0" width="44" height="59" fill="black">
<rect fill="white" width="44" height="59"/>
<path d="M22.024 56.864C19.048 56.864 16.216 56.312 13.528 55.208C10.84 54.056 8.56 52.448 6.688 50.384C4.816 48.32 3.568 45.896 2.944 43.112L12.808 39.8C13.624 42.104 14.824 43.856 16.408 45.056C17.992 46.208 19.864 46.784 22.024 46.784C23.8 46.784 25.312 46.448 26.56 45.776C27.856 45.104 28.864 44.168 29.584 42.968C30.304 41.72 30.664 40.28 30.664 38.648C30.664 37.016 30.304 35.624 29.584 34.472C28.912 33.272 27.928 32.36 26.632 31.736C25.384 31.064 23.848 30.728 22.024 30.728C20.968 30.728 19.912 30.848 18.856 31.088C17.8 31.328 16.84 31.664 15.976 32.096L13.384 26.696L27.136 11.72H6.184V2.36H39.664V11L25.552 27.056L25.912 22.52C29.128 22.52 31.912 23.192 34.264 24.536C36.664 25.832 38.512 27.656 39.808 30.008C41.152 32.36 41.824 35.096 41.824 38.216C41.824 41.768 40.96 44.96 39.232 47.792C37.504 50.624 35.152 52.856 32.176 54.488C29.2 56.072 25.816 56.864 22.024 56.864Z"/>
</mask>
<path d="M13.528 55.208L12.7402 57.0463L12.7541 57.0523L12.7682 57.058L13.528 55.208ZM6.688 50.384L5.20656 51.7276L6.688 50.384ZM2.944 43.112L2.30739 41.216L0.598058 41.79L0.992421 43.5494L2.944 43.112ZM12.808 39.8L14.6933 39.1323L14.0365 37.2778L12.1714 37.904L12.808 39.8ZM16.408 45.056L15.2003 46.6502L15.2159 46.662L15.2317 46.6735L16.408 45.056ZM26.56 45.776L25.6394 44.0005L25.6255 44.0077L25.6118 44.0151L26.56 45.776ZM29.584 42.968L31.299 43.997L31.3078 43.9823L31.3164 43.9674L29.584 42.968ZM29.584 34.472L27.839 35.4492L27.8625 35.4912L27.888 35.532L29.584 34.472ZM26.632 31.736L25.6838 33.4969L25.7236 33.5184L25.7644 33.538L26.632 31.736ZM15.976 32.096L14.173 32.9615L15.0525 34.7938L16.8704 33.8849L15.976 32.096ZM13.384 26.696L11.9109 25.3433L10.995 26.3407L11.581 27.5615L13.384 26.696ZM27.136 11.72L28.6091 13.0727L31.6878 9.72H27.136V11.72ZM6.184 11.72H4.184V13.72H6.184V11.72ZM6.184 2.35999V0.359995H4.184V2.35999H6.184ZM39.664 2.35999H41.664V0.359995H39.664V2.35999ZM39.664 11L41.1662 12.3203L41.664 11.754V11H39.664ZM25.552 27.056L23.5583 26.8978L23.0823 32.8955L27.0542 28.3763L25.552 27.056ZM25.912 22.52V20.52H24.0644L23.9183 22.3618L25.912 22.52ZM34.264 24.536L33.2717 26.2725L33.2926 26.2844L33.3137 26.2958L34.264 24.536ZM39.808 30.008L38.0563 30.9732L38.0638 30.9868L38.0715 31.0003L39.808 30.008ZM39.232 47.792L37.5247 46.7503L39.232 47.792ZM32.176 54.488L33.1157 56.2535L33.1267 56.2476L33.1377 56.2416L32.176 54.488ZM22.024 54.864C19.3022 54.864 16.7289 54.3605 14.2878 53.358L12.7682 57.058C15.7031 58.2635 18.7938 58.864 22.024 58.864V54.864ZM14.3158 53.3697C11.8785 52.3251 9.83891 50.8811 8.16944 49.0404L5.20656 51.7276C7.28109 54.0149 9.80149 55.7869 12.7402 57.0463L14.3158 53.3697ZM8.16944 49.0404C6.53565 47.239 5.44579 45.1294 4.89558 42.6746L0.992421 43.5494C1.69021 46.6626 3.09635 49.401 5.20656 51.7276L8.16944 49.0404ZM3.58061 45.008L13.4446 41.696L12.1714 37.904L2.30739 41.216L3.58061 45.008ZM10.9227 40.4677C11.839 43.0549 13.2398 45.165 15.2003 46.6502L17.6157 43.4618C16.4082 42.547 15.409 41.1531 14.6933 39.1323L10.9227 40.4677ZM15.2317 46.6735C17.1927 48.0997 19.487 48.784 22.024 48.784V44.784C20.241 44.784 18.7913 44.3163 17.5843 43.4385L15.2317 46.6735ZM22.024 48.784C24.0488 48.784 25.9041 48.4007 27.5082 47.5369L25.6118 44.0151C24.7199 44.4953 23.5512 44.784 22.024 44.784V48.784ZM27.4806 47.5515C29.0905 46.7167 30.38 45.5287 31.299 43.997L27.869 41.939C27.348 42.8073 26.6215 43.4913 25.6394 44.0005L27.4806 47.5515ZM31.3164 43.9674C32.234 42.3769 32.664 40.5834 32.664 38.648H28.664C28.664 39.9766 28.374 41.0631 27.8516 41.9686L31.3164 43.9674ZM32.664 38.648C32.664 36.7172 32.2355 34.9407 31.28 33.412L27.888 35.532C28.3726 36.3073 28.664 37.3148 28.664 38.648H32.664ZM31.329 33.4948C30.4467 31.9192 29.1479 30.7276 27.4996 29.934L25.7644 33.538C26.7081 33.9924 27.3773 34.6248 27.839 35.4492L31.329 33.4948ZM27.5802 29.9751C25.969 29.1075 24.0866 28.728 22.024 28.728V32.728C23.6094 32.728 24.799 33.0205 25.6838 33.4969L27.5802 29.9751ZM22.024 28.728C20.8151 28.728 19.6105 28.8655 18.4128 29.1377L19.2992 33.0383C20.2135 32.8305 21.1209 32.728 22.024 32.728V28.728ZM18.4128 29.1377C17.219 29.409 16.105 29.7954 15.0816 30.3071L16.8704 33.8849C17.575 33.5326 18.381 33.247 19.2992 33.0383L18.4128 29.1377ZM17.779 31.2305L15.187 25.8305L11.581 27.5615L14.173 32.9615L17.779 31.2305ZM14.8571 28.0487L28.6091 13.0727L25.6629 10.3673L11.9109 25.3433L14.8571 28.0487ZM27.136 9.72H6.184V13.72H27.136V9.72ZM8.184 11.72V2.35999H4.184V11.72H8.184ZM6.184 4.35999H39.664V0.359995H6.184V4.35999ZM37.664 2.35999V11H41.664V2.35999H37.664ZM38.1618 9.67966L24.0498 25.7357L27.0542 28.3763L41.1662 12.3203L38.1618 9.67966ZM27.5457 27.2142L27.9057 22.6782L23.9183 22.3618L23.5583 26.8978L27.5457 27.2142ZM25.912 24.52C28.8453 24.52 31.274 25.1309 33.2717 26.2725L35.2563 22.7995C32.55 21.2531 29.4107 20.52 25.912 20.52V24.52ZM33.3137 26.2958C35.3815 27.4124 36.9487 28.9631 38.0563 30.9732L41.5597 29.0428C40.0753 26.3489 37.9465 24.2516 35.2143 22.7762L33.3137 26.2958ZM38.0715 31.0003C39.2181 33.0068 39.824 35.3906 39.824 38.216H43.824C43.824 34.8014 43.0859 31.7132 41.5445 29.0157L38.0715 31.0003ZM39.824 38.216C39.824 41.4275 39.0477 44.2543 37.5247 46.7503L40.9393 48.8337C42.8723 45.6657 43.824 42.1085 43.824 38.216H39.824ZM37.5247 46.7503C35.9831 49.2768 33.8913 51.2664 31.2143 52.7344L33.1377 56.2416C36.4127 54.4456 39.0249 51.9712 40.9393 48.8337L37.5247 46.7503ZM31.2363 52.7225C28.5841 54.1342 25.5297 54.864 22.024 54.864V58.864C26.1023 58.864 29.8159 58.0098 33.1157 56.2535L31.2363 52.7225Z" fill="#F6687A" mask="url(#path-1-outside-1_1_464)"/>
</svg>
