<svg width="175" height="40" viewBox="0 0 175 40" fill="none" xmlns="http://www.w3.org/2000/svg">
<g clip-path="url(#clip0_23_765)">
<path d="M157.284 0.983023V30.2991C157.284 31.2466 157.618 32.0517 158.281 32.7211C158.949 33.384 159.749 33.7187 160.682 33.7187H174.157V35.8755H160.703C159.177 35.8755 157.864 35.3258 156.766 34.2296C155.675 33.1302 155.125 31.8141 155.125 30.2732V0.983023H157.284ZM152.139 0.983023H154.296V30.312C154.296 32.0614 154.92 33.5618 156.162 34.8019C157.405 36.0469 158.905 36.671 160.653 36.671H174.126V38.8278H160.653C158.314 38.8278 156.301 37.9935 154.629 36.3298C152.97 34.6564 152.137 32.6451 152.137 30.304L152.139 0.983023ZM112.755 19.4131C112.755 23.3549 114.155 26.7308 116.956 29.5441C119.751 32.3266 123.13 33.7187 127.093 33.7187C131.035 33.7187 134.411 32.3266 137.205 29.5441C140.005 26.7308 141.407 23.3549 141.407 19.4131C141.407 15.4713 140.006 12.097 137.205 9.28375C134.411 6.50283 131.036 5.10752 127.093 5.10752C123.132 5.10752 119.751 6.50121 116.956 9.28375C114.155 12.097 112.755 15.4713 112.755 19.4131ZM110.597 19.4131C110.597 14.865 112.212 10.9927 115.442 7.78981C118.658 4.56589 122.538 2.9523 127.091 2.9523C131.628 2.9523 135.5 4.5675 138.716 7.78981C141.945 10.9943 143.56 14.8666 143.56 19.4131C143.56 23.9612 141.945 27.8383 138.716 31.0509C135.5 34.2684 131.627 35.8755 127.091 35.8755C122.538 35.8755 118.658 34.2684 115.442 31.0509C112.212 27.8399 110.597 23.9612 110.597 19.4131ZM109.803 19.4131C109.803 24.1698 111.494 28.2312 114.875 31.6071C118.249 34.9798 122.319 36.6726 127.08 36.6726C131.842 36.6726 135.911 34.9798 139.285 31.6071C142.668 28.2312 144.357 24.1698 144.357 19.4131C144.357 14.658 142.668 10.5966 139.285 7.2207C135.911 3.8464 131.842 2.15521 127.08 2.15521C122.319 2.15521 118.249 3.84479 114.875 7.2207C111.494 10.5966 109.803 14.658 109.803 19.4131ZM107.646 19.4131C107.646 14.0711 109.544 9.49232 113.34 5.68957C117.151 1.89814 121.732 0 127.08 0C132.43 0 137.009 1.89814 140.818 5.68957C144.616 9.49232 146.514 14.0728 146.514 19.4131C146.514 24.7567 144.614 29.3355 140.818 33.1382C137.009 36.9313 132.43 38.8294 127.08 38.8294C121.732 38.8294 117.151 36.9313 113.342 33.1382C109.544 29.3371 107.646 24.7583 107.646 19.4131ZM82.7211 0.983023C84.2344 0.983023 85.5327 1.51981 86.6176 2.59175C87.6847 3.66532 88.2199 4.95715 88.2199 6.47049V34.3945C88.2199 34.6532 88.346 34.7761 88.5982 34.7761C88.8504 34.7761 88.9766 34.6532 88.9766 34.3945V6.48989C88.9766 4.97494 89.5117 3.67664 90.5772 2.59175C91.6491 1.51981 92.9426 0.983023 94.4559 0.983023H106.414V3.13985H94.4559C93.5473 3.13985 92.7648 3.46807 92.1099 4.11641C91.4632 4.77445 91.135 5.56184 91.135 6.48343V34.3897C91.135 35.0881 90.8892 35.6944 90.3961 36.1989C89.8981 36.692 89.2983 36.9378 88.5998 36.9378C87.8981 36.9378 87.2999 36.692 86.8019 36.1989C86.3088 35.6928 86.0631 35.0865 86.0631 34.3897V6.46564C86.0631 5.55699 85.7365 4.77607 85.0865 4.11964C84.4301 3.46968 83.6362 3.14309 82.7017 3.14309H70.4656V0.983023H82.7211ZM106.449 3.93533V6.09216H94.5158C94.2571 6.09216 94.1245 6.22474 94.1245 6.48343V34.4899C94.1245 36.021 93.5829 37.3193 92.498 38.3929C91.426 39.4632 90.1261 40 88.6128 40C87.093 40 85.7931 39.4632 84.7211 38.3929C83.6475 37.3193 83.1124 36.021 83.1124 34.4899V6.48343C83.1124 6.22474 82.9879 6.09216 82.7292 6.09216H70.4543V3.93533H82.7292C83.4293 3.93533 84.021 4.18108 84.5141 4.67421C85.0202 5.17866 85.2724 5.78496 85.2724 6.48504V34.485C85.2724 35.4034 85.599 36.194 86.249 36.8504C86.9038 37.4972 87.688 37.827 88.6015 37.827C89.5279 37.827 90.3169 37.4988 90.9669 36.8504C91.6087 36.194 91.9321 35.4034 91.9321 34.485V6.48343C91.9321 5.77203 92.1843 5.16572 92.6952 4.6726C93.1948 4.18108 93.7995 3.93371 94.519 3.93371L106.449 3.93533ZM35.4276 19.4131C35.4276 23.3549 36.8278 26.7308 39.6297 29.5441C42.4252 32.3266 45.8044 33.7187 49.7672 33.7187C53.709 33.7187 57.0833 32.3266 59.8787 29.5441C62.6774 26.7308 64.0792 23.3549 64.0792 19.4131C64.0792 15.4713 62.6791 12.097 59.8787 9.28375C57.0833 6.50283 53.709 5.10752 49.7672 5.10752C45.806 5.10752 42.4252 6.50121 39.6297 9.28375C36.8278 12.097 35.4276 15.4713 35.4276 19.4131ZM33.2708 19.4131C33.2708 14.865 34.886 10.9927 38.1148 7.78981C41.3306 4.56589 45.211 2.9523 49.7656 2.9523C54.3007 2.9523 58.173 4.5675 61.3888 7.78981C64.6192 10.9943 66.2328 14.8666 66.2328 19.4131C66.2328 23.9612 64.6192 27.8383 61.3888 31.0509C58.173 34.2684 54.2991 35.8755 49.7656 35.8755C45.211 35.8755 41.3306 34.2684 38.1148 31.0509C34.886 27.8399 33.2708 23.9612 33.2708 19.4131ZM32.477 19.4131C32.477 24.1698 34.1665 28.2312 37.5489 31.6071C40.9232 34.9798 44.9927 36.6726 49.7542 36.6726C54.5158 36.6726 58.5837 34.9798 61.9596 31.6071C65.3403 28.2312 67.0315 24.1698 67.0315 19.4131C67.0315 14.658 65.3403 10.5966 61.9596 7.2207C58.5837 3.8464 54.5158 2.15521 49.7542 2.15521C44.9927 2.15521 40.9232 3.84479 37.5489 7.2207C34.1665 10.5966 32.477 14.658 32.477 19.4131ZM30.3185 19.4131C30.3185 14.0711 32.2183 9.49232 36.0129 5.68957C39.8254 1.89814 44.4042 0 49.7526 0C55.101 0 59.6815 1.89814 63.4891 5.68957C67.2886 9.49232 69.1851 14.0728 69.1851 19.4131C69.1851 24.7567 67.287 29.3355 63.4891 33.1382C59.6815 36.9313 55.101 38.8294 49.7526 38.8294C44.4042 38.8294 39.8238 36.9313 36.0129 33.1382C32.2183 29.3371 30.3185 24.7583 30.3185 19.4131ZM0.00646726 3.14147V0.983023H14.4398C16.7922 0.983023 18.81 1.81568 20.4802 3.47453C22.152 5.13985 22.9911 7.12692 22.9911 9.44058C22.9911 11.806 22.152 13.8238 20.4802 15.502C18.8036 17.1738 16.7922 18.0129 14.4398 18.0129L9.05901 17.9951C8.80032 17.9951 8.66774 18.1326 8.66774 18.4107C8.66774 18.6758 8.83751 18.8084 9.17381 18.8084H14.6791C17.4357 18.8084 19.7947 19.785 21.7575 21.7478C23.7187 23.7025 24.6968 26.0614 24.6968 28.8181C24.6968 31.5748 23.7187 33.9337 21.7639 35.8884C19.8011 37.8496 17.4422 38.8278 14.6855 38.8278H0.0129345V36.671H14.6839C16.8424 36.671 18.6904 35.8998 20.2296 34.3622C21.7688 32.8343 22.5384 30.9863 22.5384 28.8165C22.5384 26.6467 21.7688 24.8003 20.2231 23.2708C18.6839 21.7332 16.8359 20.9636 14.6774 20.9636H9.06386C8.3557 20.9636 7.75748 20.7114 7.25465 20.2005C6.74859 19.709 6.49636 19.1027 6.49636 18.3961C6.49636 17.6847 6.75505 17.0719 7.27243 16.5788C7.78981 16.0711 8.42037 15.8189 9.17219 15.8189H14.4398C16.1924 15.8189 17.6944 15.1948 18.9491 13.9531C20.2037 12.7227 20.8343 11.2466 20.8343 9.52466C20.8343 7.76556 20.2037 6.26354 18.9491 5.02183C17.7057 3.76718 16.2053 3.14147 14.4398 3.14147H0.00646726ZM0 6.09378V3.93533H14.4333C15.9709 3.93533 17.2967 4.47696 18.4058 5.56184C19.4988 6.64673 20.0469 7.94018 20.0469 9.44058C20.0469 10.9927 19.4988 12.3169 18.4058 13.4147C17.3096 14.5141 15.9903 15.0622 14.4511 15.0622H9.07033C8.14875 15.0622 7.35489 15.3905 6.68553 16.0388C6.03557 16.6888 5.70736 17.4778 5.70736 18.3977C5.70736 19.3242 6.04204 20.1067 6.70493 20.7437C7.37914 21.3937 8.20533 21.7219 9.18351 21.7219H14.6726C16.6273 21.7219 18.2975 22.4107 19.6815 23.7898C21.0558 25.1819 21.7429 26.8553 21.7429 28.8052C21.7429 30.7405 21.0542 32.4058 19.6815 33.8011C18.2991 35.1819 16.6273 35.8755 14.6726 35.8755H0V33.7187H14.6726C16.0275 33.7187 17.1819 33.2385 18.1455 32.2716C19.1059 31.308 19.5861 30.152 19.5861 28.8036C19.5861 27.4454 19.1059 26.2862 18.1455 25.3209C17.1803 24.3573 16.0259 23.8771 14.6726 23.8771H9.07033C7.54406 23.8771 6.23767 23.3403 5.15279 22.2765C4.08084 21.2029 3.54406 19.9095 3.54406 18.3961C3.54406 16.8763 4.08731 15.5764 5.17219 14.5044C6.27001 13.4373 7.60711 12.9022 9.18351 12.9022L14.4333 12.886C15.3775 12.886 16.1924 12.5513 16.8682 11.8901C17.536 11.2336 17.8707 10.4511 17.8707 9.53759C17.8707 8.58529 17.536 7.7785 16.8682 7.10913C16.1924 6.43492 15.3775 6.09378 14.4333 6.09378H0Z" fill="black"/>
</g>
<defs>
<clipPath id="clip0_23_765">
<rect width="174.158" height="40" fill="white"/>
</clipPath>
</defs>
</svg>
