<svg width="48" height="58" viewBox="0 0 48 58" fill="none" xmlns="http://www.w3.org/2000/svg">
<mask id="path-1-outside-1_1_562" maskUnits="userSpaceOnUse" x="0" y="0" width="48" height="58" fill="black">
<rect fill="white" width="48" height="58"/>
<path d="M26.064 56V44.48H2.304V35.12L25.344 2.36H37.224V35.12H45.504V44.48H37.224V56H26.064ZM10.44 39.152L8.352 35.12H26.064V11L28.872 11.864L10.44 39.152Z"/>
</mask>
<path d="M26.064 56H24.064V58H26.064V56ZM26.064 44.48H28.064V42.48H26.064V44.48ZM2.304 44.48H0.304V46.48H2.304V44.48ZM2.304 35.12L0.668074 33.9695L0.304 34.4871V35.12H2.304ZM25.344 2.35999V0.359995H24.3055L23.7081 1.20945L25.344 2.35999ZM37.224 2.35999H39.224V0.359995H37.224V2.35999ZM37.224 35.12H35.224V37.12H37.224V35.12ZM45.504 35.12H47.504V33.12H45.504V35.12ZM45.504 44.48V46.48H47.504V44.48H45.504ZM37.224 44.48V42.48H35.224V44.48H37.224ZM37.224 56V58H39.224V56H37.224ZM10.44 39.152L8.66401 40.0717L10.2125 43.0619L12.0973 40.2715L10.44 39.152ZM8.352 35.12V33.12H5.06402L6.57601 36.0397L8.352 35.12ZM26.064 35.12V37.12H28.064V35.12H26.064ZM26.064 11L26.6522 9.08844L24.064 8.29208V11H26.064ZM28.872 11.864L30.5293 12.9835L32.0404 10.7464L29.4602 9.95244L28.872 11.864ZM28.064 56V44.48H24.064V56H28.064ZM26.064 42.48H2.304V46.48H26.064V42.48ZM4.304 44.48V35.12H0.304V44.48H4.304ZM3.93993 36.2705L26.9799 3.51054L23.7081 1.20945L0.668074 33.9695L3.93993 36.2705ZM25.344 4.35999H37.224V0.359995H25.344V4.35999ZM35.224 2.35999V35.12H39.224V2.35999H35.224ZM37.224 37.12H45.504V33.12H37.224V37.12ZM43.504 35.12V44.48H47.504V35.12H43.504ZM45.504 42.48H37.224V46.48H45.504V42.48ZM35.224 44.48V56H39.224V44.48H35.224ZM37.224 54H26.064V58H37.224V54ZM12.216 38.2323L10.128 34.2003L6.57601 36.0397L8.66401 40.0717L12.216 38.2323ZM8.352 37.12H26.064V33.12H8.352V37.12ZM28.064 35.12V11H24.064V35.12H28.064ZM25.4758 12.9116L28.2838 13.7756L29.4602 9.95244L26.6522 9.08844L25.4758 12.9116ZM27.2147 10.7445L8.78266 38.0325L12.0973 40.2715L30.5293 12.9835L27.2147 10.7445Z" fill="#F6687A" mask="url(#path-1-outside-1_1_562)"/>
</svg>
